<svg width="896" height="549" viewBox="0 0 896 549" fill="none" xmlns="http://www.w3.org/2000/svg">
<path d="M281.96 387.591V425.895C281.96 425.895 282.45 428.556 286.16 429.046V489.758C286.16 489.758 451.57 580.581 677.18 489.758L674.38 334.932C674.38 334.932 678.86 331.151 643.72 325.969L644.28 294.457C644.28 294.457 642.95 287.105 633.15 281.362C639.03 279.052 642.53 276.111 648.27 273.24L654.01 201.183C654.29 198.032 653.03 194.881 650.72 192.71L648.27 190.469C648.27 190.469 601.65 154.826 511.28 154.056C457.66 153.566 343.77 162.879 303.8 206.295L305.62 259.655C305.62 259.655 262.29 264.696 247.45 295.858V348.027C247.45 348.027 264.25 363.502 278.04 365.463L281.96 387.591Z" fill="#C7DDF3"/>
<path d="M286.23 429.116V489.828C286.23 489.828 360.85 531.704 479.99 530.023C599.13 528.343 673.68 489.268 673.68 489.268L676.9 415.952L286.23 429.116Z" fill="#004178"/>
<path d="M479.15 460.698L479.99 530.023C479.99 530.023 491.26 530.023 503.37 529.393L502.18 460.068C502.18 460.068 493.57 461.678 479.15 460.698Z" fill="#FCDBCF"/>
<path d="M448.07 458.457L449.19 529.323C449.19 529.323 458.15 530.163 472.29 530.023L469.98 460.068C469.98 460.068 461.65 460.068 448.07 458.457Z" fill="#FCDBCF"/>
<path d="M279.44 368.194L282.03 425.825C282.03 425.825 329 465.179 479.22 469.451C629.44 473.723 676.97 415.741 676.97 415.741L674.52 334.862C674.52 334.862 612.36 400.336 490.98 398.375C369.67 396.414 279.44 368.194 279.44 368.194Z" fill="#F9C3C9"/>
<path d="M703.85 464.549H705.74V443.402C705.74 443.402 737.59 437.309 738.57 392.493C738.57 392.493 739.2 385.56 736.05 389.972C732.9 394.384 727.3 409.439 713.79 423.864C706.16 432.057 705.95 437.379 705.95 437.379V427.646C705.95 427.646 734.16 366.444 713.93 333.111C713.93 333.111 704.62 352.018 696.99 372.746C689.36 393.473 704.06 424.004 704.06 424.004V461.678" fill="#4FAF98"/>
<path d="M709.03 464.549C709.03 464.549 719.25 448.794 730.38 440.671C730.38 440.671 728.84 449.144 727.09 455.236C725.34 461.328 715.47 464.549 715.47 464.549H709.03Z" fill="#4FAF98"/>
<path d="M332.01 205.105C332.15 216.029 357.98 217.289 383.74 219.53C457.17 225.832 505.89 228.633 568.75 224.082C592.27 222.401 638.33 211.127 638.33 194.041C638.33 188.159 630.07 184.237 623.14 181.506C616.42 178.915 575.26 165.68 556.92 164.21C526.47 161.829 518 161.829 492.52 162.389C481.18 162.669 445.34 164.35 430.78 167.081C417.06 169.672 386.75 175.694 373.31 179.756C358.19 184.377 331.87 195.371 332.01 205.105Z" fill="#F1EFE3"/>
<path d="M303.8 267.427V281.012C303.8 281.012 405.09 296.208 614.95 280.242C614.95 280.242 625.03 320.997 446.04 319.736C334.53 318.966 279.44 303.21 281.19 280.382C281.75 273.94 287.84 268.268 303.8 267.427Z" fill="#F1EFE3"/>
<path d="M686.28 464.549H689.43V457.617C689.43 457.617 706.16 429.186 703.43 406.148C703.43 406.148 693 418.262 689.64 444.802V402.787C689.64 402.787 719.11 374.566 703.71 336.613C703.71 336.613 702.87 335.072 701.4 333.041C701.4 333.041 697.13 367.424 692.72 375.827C688.31 384.16 689.5 397.465 689.5 397.465L686.28 377.788C686.28 377.788 693.84 351.738 678.86 344.736C678.86 344.736 675.57 352.018 676.97 362.592C678.02 370.505 683.97 378.068 683.97 378.068L687.75 398.725V418.753C687.75 418.753 683.48 401.666 679.7 385.14C675.92 368.614 663.53 347.607 663.53 347.607C663.53 347.607 653.31 356.15 655.83 382.339C658.35 408.459 687.19 432.548 687.19 432.548V451.174C687.19 451.174 676.55 422.954 644.56 415.811C644.56 415.811 656.25 439.2 686.56 454.326L686.28 464.549Z" fill="#4FAF98"/>
<path d="M704.41 290.956L825.51 295.718C825.51 295.718 817.81 269.318 788.13 279.682C788.13 279.682 769.3 244.879 752.36 281.573C752.36 281.573 710.08 242.989 704.41 290.956Z" fill="#FCDBCF"/>
<path d="M572.39 82.35L752.01 74.9273C752.01 74.9273 755.3 57.4909 736.96 61.2723C736.96 61.2723 736.05 31.1614 703.08 58.4713C703.08 58.4713 696.99 36.8334 683.76 37.7438C670.6 38.6541 663.32 46.9871 662.27 60.0119C661.22 73.0366 658.56 60.0119 658.56 60.0119C658.56 60.0119 642.32 -9.31338 610.33 64.0733C610.47 64.1434 568.75 27.1699 572.39 82.35Z" fill="#FCDBCF"/>
<path d="M657.3 461.608L671.44 519.659H716.66L731.92 461.608H657.3Z" fill="#F2601A"/>
<path d="M443.66 177.235C444.29 177.024 469.56 177.235 469.56 177.235L481.04 97.5455C481.18 96.4951 482.09 95.6548 483.14 95.5148C484.4 95.4447 485.52 96.3551 485.66 97.6155L494.97 180.806H525.14L496.09 76.2578L467.88 78.9887L443.66 177.235Z" fill="#A94F46"/>
<path d="M430.92 185.498L469.21 184.657L469.63 176.114H443.73C443.66 176.114 432.11 176.534 430.92 185.498Z" fill="#F1BE52"/>
<path d="M496.65 188.859C497.56 188.999 538.09 188.859 538.09 188.859C538.09 188.859 538.72 181.646 525.14 180.806C511.56 179.966 494.97 180.806 494.97 180.806L496.65 188.859Z" fill="#F1BE52"/>
<path d="M443.66 177.235C444.29 177.024 469.56 177.235 469.56 177.235L481.04 97.5455C481.18 96.4951 482.09 95.6548 483.14 95.5148C484.4 95.4447 485.52 96.3551 485.66 97.6155L494.97 180.806H525.14L496.09 76.2578L467.88 78.9887L443.66 177.235Z" fill="#A94F46"/>
<path d="M430.92 185.498L469.21 184.657L469.63 176.114H443.73C443.66 176.114 432.11 176.534 430.92 185.498Z" fill="#F1BE52"/>
<path d="M496.65 188.859C497.56 188.999 538.09 188.859 538.09 188.859C538.09 188.859 538.72 181.646 525.14 180.806C511.56 179.966 494.97 180.806 494.97 180.806L496.65 188.859Z" fill="#F1BE52"/>
<path d="M483.63 303.21C544.74 303.21 596.61 305.591 648.41 273.24L653.52 205.455C653.52 205.455 609.49 232.905 495.95 232.905C409.92 232.905 341.39 231.084 304.01 206.225V281.853C303.94 281.923 325.85 303.21 483.63 303.21Z" fill="#004178"/>
<path d="M353.29 224.082V295.858C353.29 295.858 353.99 296.208 358.33 296.558L357.56 224.782C357.56 224.782 355.39 224.642 353.29 224.082Z" fill="#FCDBCF"/>
<path d="M381.22 228.703V299.149C381.22 299.149 387.38 300.199 400.33 300.62L397.18 230.034C397.18 230.034 390.81 229.684 381.22 228.703Z" fill="#FCDBCF"/>
<path d="M509.18 232.765L507.64 303.631C507.64 303.631 519.33 304.471 531.02 303L529.34 232.135C529.27 232.065 524.79 232.415 509.18 232.765Z" fill="#FCDBCF"/>
<path d="M588.56 225.552V296.978C588.56 296.978 586.81 298.099 583.52 297.678L584.36 226.182C584.29 226.182 586.46 226.042 588.56 225.552Z" fill="#FCDBCF"/>
<path d="M621.04 217.989L625.03 285.494C625.03 285.494 616.35 289.135 600.67 293.757L599.97 222.751C599.97 222.751 614.18 219.67 621.04 217.989Z" fill="#FCDBCF"/>
<path d="M566.789 390.322C563.43 391.163 560 391.863 556.5 392.563L555.31 465.81C559.23 465.249 563.08 464.689 566.789 464.059V390.322Z" fill="#A94F46"/>
<path d="M544.88 467.07C546.7 466.86 548.52 466.65 550.27 466.44L551.32 393.543C549.64 393.823 547.96 394.174 546.21 394.454L544.88 467.07Z" fill="#A94F46"/>
<path d="M369.67 387.801C364 386.891 358.54 385.981 353.29 385.07V454.396C358.4 455.656 363.86 456.846 369.67 458.037V387.801Z" fill="#A94F46"/>
<path d="M344.05 452.015C345.59 452.435 347.2 452.855 348.81 453.275L349.86 384.44C347.9 384.09 345.94 383.74 344.05 383.39V452.015Z" fill="#A94F46"/>
<path d="M247.66 295.788C247.66 295.788 280.77 322.607 434.49 328.98C588.21 335.352 644.42 294.387 644.42 294.387L643.3 355.029C643.3 355.029 619.15 401.736 448 398.725C276.92 395.714 247.66 348.027 247.66 348.027V295.788Z" fill="#004178"/>
<path d="M479.29 398.725C487.41 398.585 495.11 398.305 502.39 397.885L501.06 328.77C494.06 329.12 486.85 329.4 479.29 329.54V398.725Z" fill="#FCDBCF"/>
<path d="M618.66 306.992C612.78 309.233 605.85 311.614 597.73 313.924L596.26 382.97C604.73 380.239 611.73 377.438 617.47 374.636L618.66 306.992Z" fill="#FCDBCF"/>
<path d="M461.51 398.865C463.26 398.865 464.94 398.865 466.62 398.865L465.99 329.68C464.17 329.68 462.35 329.68 460.46 329.68L461.51 398.865Z" fill="#FCDBCF"/>
<path d="M285.74 373.166C290.57 375.197 296.03 377.157 302.05 379.118L301.77 314.485C295.82 313.224 290.5 311.964 285.74 310.703V373.166Z" fill="#FCDBCF"/>
<path d="M459.9 111.341C459.9 111.341 459.9 111.27 459.9 111.341L459.27 113.861C459.83 113.161 460.04 112.321 459.9 111.341Z" fill="#F2601A"/>
<path d="M469.77 79.9691C469.77 79.9691 468.93 79.549 467.88 79.0588L462.56 100.627C462.7 100.837 462.77 100.977 462.98 101.117C464.8 102.517 468.65 100.417 468.93 100.136C469.21 99.8564 470.89 104.198 472.57 103.848C474.32 103.498 475.86 102.587 475.86 100.697C475.86 98.876 476.21 98.806 476.21 98.806C476.21 98.806 478.73 100.136 480.69 100.066L481.04 97.4055C481.18 96.3551 482.09 95.5148 483.14 95.3747C483.42 95.3747 483.7 95.3747 483.98 95.4448C483.56 94.0442 481.95 93.1339 481.95 93.1339C481.95 93.1339 485.31 91.1732 485.24 89.2825C485.1 87.3918 483.77 83.1903 482.3 82.9102C480.83 82.6301 478.17 83.0502 478.17 83.0502C478.17 83.0502 479.15 79.759 477.82 77.8683L470.05 78.6386C469.91 79.1288 469.77 79.549 469.77 79.9691ZM472.08 87.5319L472.78 88.5823L473.27 89.9127L473.13 90.9631L472.43 91.9435L471.45 92.7138L470.19 92.9939L469.42 92.3636L468.79 91.3833L468.65 90.1228L468.79 89.0024V87.4618L469.42 86.8316L470.68 86.3414L471.38 86.8316L472.08 87.5319Z" fill="#F2601A"/>
<path d="M469.35 86.8316L468.72 87.4618V89.0024L468.58 90.1228L468.72 91.4533L469.35 92.4337L470.12 93.0639L471.38 92.7838L472.36 92.0135L473.06 91.0331L473.2 89.9828L472.71 88.5822L472.08 87.5319L471.38 86.8316L470.68 86.3414L469.35 86.8316Z" fill="#48548E"/>
<path d="M487.97 104.688C487.13 105.949 487.62 106.649 488.67 108.469C489.72 110.29 492.17 110.43 494.41 111.13C494.41 111.13 492.17 116.312 493.99 117.713C495.81 119.113 499.66 117.013 499.94 116.733C500.22 116.452 501.9 120.794 503.58 120.444C505.33 120.094 506.87 119.183 506.87 117.293C506.87 116.452 506.94 115.962 507.01 115.682L501.27 95.0246C500.99 95.4447 500.85 95.9349 500.78 96.4251C500.78 96.4251 497.77 95.0246 496.09 94.3243C494.41 93.6241 493.15 95.1646 492.45 96.7752C491.75 98.3858 491.12 99.4362 491.82 100.557C492.52 101.677 492.73 102.097 492.73 102.097C492.73 102.097 488.81 103.428 487.97 104.688ZM499.8 105.458V103.918L500.43 103.288L501.69 102.797L502.39 103.288L503.09 103.988L503.79 105.038L504.28 106.369L504.14 107.419L503.44 108.399L502.46 109.17L501.2 109.45L500.43 108.82L499.8 107.839L499.66 106.579L499.8 105.458Z" fill="#F2601A"/>
<path d="M500.5 108.96L501.2 109.52L502.46 109.31L503.44 108.54L504.14 107.489L504.28 106.439L503.86 105.038L503.16 104.058L502.46 103.358L501.76 102.867L500.5 103.358L499.8 103.918V105.458L499.66 106.649L499.8 107.909L500.5 108.96Z" fill="#48548E"/>
<path d="M518.42 156.437L517.51 153.216C517.3 154.476 517.37 155.667 518.14 156.227C518.21 156.297 518.28 156.367 518.42 156.437Z" fill="#F2601A"/>
<path d="M516.39 149.084L514.36 141.732C513.38 142.152 512.47 142.712 512.12 143.272C511.28 144.533 511.77 145.233 512.82 147.054C513.45 148.244 514.85 148.734 516.39 149.084Z" fill="#F2601A"/>
<path d="M497.63 170.512C497.91 170.232 499.59 174.574 501.27 174.223C503.02 173.873 504.56 172.963 504.56 171.072C504.56 169.182 504.91 169.182 504.91 169.182C504.91 169.182 508.41 171.072 510.37 170.232C512.33 169.392 513.03 167.991 512.82 166.381C512.68 164.7 510.72 163.58 510.72 163.58C510.72 163.58 514.08 161.619 514.01 159.728C513.94 157.837 512.54 153.636 511.07 153.356C509.6 153.076 506.94 153.496 506.94 153.496C506.94 153.496 508.55 147.964 504.77 147.054C500.99 146.213 498.61 148.174 498.47 150.275C498.47 150.275 495.46 148.874 493.78 148.174C492.8 147.824 491.96 148.104 491.33 148.804L493.92 171.913C495.67 171.703 497.49 170.722 497.63 170.512ZM497.49 159.308V157.767L498.12 157.137L499.38 156.647L500.08 157.137L500.78 157.837L501.48 158.888L501.97 160.218L501.83 161.269L501.13 162.249L500.15 163.019L498.89 163.299L498.12 162.669L497.49 161.689L497.35 160.428L497.49 159.308Z" fill="#F2601A"/>
<path d="M498.12 162.739L498.89 163.369L500.15 163.089L501.13 162.319L501.83 161.339L501.97 160.218L501.48 158.888L500.85 157.837L500.15 157.137L499.45 156.647L498.12 157.137L497.49 157.767V159.308L497.35 160.428L497.49 161.759L498.12 162.739Z" fill="#48548E"/>
<path d="M469.77 135.639C469.77 135.639 466.76 134.239 465.08 133.539C463.4 132.908 462.14 134.379 461.44 135.99C460.74 137.6 460.11 138.651 460.81 139.771C461.51 140.891 461.72 141.311 461.72 141.311C461.72 141.311 457.73 142.572 456.96 143.832C456.12 145.093 456.61 145.793 457.66 147.614C458.71 149.364 461.16 149.574 463.4 150.275C463.4 150.275 461.16 155.457 462.98 156.857C464.8 158.258 468.65 156.157 468.93 155.877C469.21 155.597 470.61 159.238 472.15 159.588L476.07 132.418C472.29 131.578 469.91 133.539 469.77 135.639ZM473.06 146.633L472.36 147.614L471.38 148.384L470.12 148.664L469.35 148.034L468.72 147.054L468.58 145.793L468.72 144.673V143.132L469.35 142.502L470.61 142.012L471.31 142.502L472.01 143.202L472.71 144.253L473.2 145.583L473.06 146.633Z" fill="#F2601A"/>
<path d="M472.08 143.202L471.38 142.502L470.68 142.012L469.35 142.502L468.72 143.062V144.603L468.58 145.793L468.72 147.054L469.35 148.104L470.12 148.664L471.38 148.454L472.36 147.684L473.06 146.633L473.2 145.583L472.71 144.253L472.08 143.202Z" fill="#48548E"/>
<path d="M459.41 154.476C457.94 154.196 455.28 154.616 455.28 154.616C455.28 154.616 456.89 149.084 453.11 148.174C452.27 147.964 451.57 147.964 450.87 147.964L448.35 158.188L449.05 158.888L449.75 159.938L450.24 161.269L450.1 162.319L449.4 163.299L448.42 164.07L447.16 164.35L446.88 164.14L444.92 172.053C445.48 171.773 445.83 171.562 445.9 171.492C446.18 171.212 447.86 175.554 449.54 175.204C451.22 174.854 452.83 173.943 452.83 172.053C452.83 170.162 453.18 170.162 453.18 170.162C453.18 170.162 456.68 172.053 458.64 171.212C460.6 170.372 461.3 168.972 461.09 167.361C460.95 165.68 458.99 164.56 458.99 164.56C458.99 164.56 462.35 162.599 462.28 160.709C462.21 158.818 460.81 154.756 459.41 154.476Z" fill="#F2601A"/>
<path d="M448.35 164.21L449.33 163.44L450.03 162.459L450.24 161.339L449.75 160.008L449.05 158.958L448.35 158.258L446.88 164.21L447.09 164.49L448.35 164.21Z" fill="#48548E"/>
<path d="M494.97 78.9187L495.74 79.4789L496.65 79.619L497 79.4089L496.09 76.2578L493.92 76.4678L494.34 77.7983L494.97 78.9187Z" fill="#F9C3C9"/>
<path d="M499.59 88.9324L499.66 89.0024L498.89 86.2714L499.24 87.882L499.59 88.9324Z" fill="#F9C3C9"/>
<path d="M492.31 88.0221L493.01 88.7223L493.92 88.8624L494.9 88.5122L495.67 87.812L495.95 86.8316L496.23 85.7812L495.88 84.8009L494.83 83.7505L494.2 83.1203L493.5 82.7001L492.8 82.28L492.31 82.49L491.19 83.5404L491.05 84.3807L491.47 86.0614L491.89 87.1818L492.31 88.0221Z" fill="#F9C3C9"/>
<path d="M506.73 125.556L506.94 124.575L507.08 123.595L506.31 122.895L505.19 122.335L503.93 122.965L502.6 124.015L501.55 124.925L501.27 125.486L501.2 126.466L501.69 127.446L502.6 127.937L503.65 128.077L505.12 127.446L506.03 126.746L506.73 125.556Z" fill="#F9C3C9"/>
<path d="M497.7 133.819L498.33 133.119L498.75 132.138V130.948L498.33 130.037L497.63 129.267L496.79 128.637L495.95 128.077L495.46 127.867L494.34 128.637L493.64 129.407L493.78 130.878L494.34 132.558L494.97 133.679L495.74 134.239L496.65 134.379L497.7 133.819Z" fill="#F9C3C9"/>
<path d="M505.12 136.2L505.82 135.219L505.96 134.169L505.54 132.768L504.84 131.718L504.14 131.018L503.44 130.528L502.18 131.018L501.48 131.648V133.188L501.34 134.379L501.48 135.639L502.18 136.62L502.88 137.25L504.14 136.97L505.12 136.2Z" fill="#F9C3C9"/>
<path d="M508.34 132.558L509.53 133.188H510.37L511.49 132.138L511.56 131.858L510.37 127.446L510.16 127.306L509.04 128.147L507.99 128.917L507.36 129.827L507.22 130.528L507.43 131.438L508.34 132.558Z" fill="#F9C3C9"/>
<path d="M507.22 140.191L508.06 140.471H509.04L510.23 139.981L511 139.211L511.42 138.44L511.77 137.53L511.98 136.34L511.63 135.709L510.86 135.079L510.23 135.009L508.62 135.709L507.85 136.48L507.01 137.11L506.45 137.81L506.31 138.58L506.38 139.351L507.22 140.191Z" fill="#F9C3C9"/>
<path d="M502.11 139.351L501.13 138.791L500.29 138.51L499.52 139.211L498.96 140.051L498.89 140.891L499.24 142.642L499.59 143.692L500.22 144.603L500.99 145.023L501.9 144.883L502.67 144.533L503.44 143.902L503.65 142.992L503.93 142.152L503.58 140.751L502.88 140.051L502.11 139.351Z" fill="#F9C3C9"/>
<path d="M494.2 137.88L493.5 137.46L492.8 137.11L492.31 137.25L491.19 138.3L491.05 139.141L491.47 140.821L491.89 141.942L492.31 142.782L493.01 143.482L493.92 143.622L494.9 143.272L495.67 142.572L495.95 141.592L496.23 140.541L495.88 139.561L494.83 138.51L494.2 137.88Z" fill="#F9C3C9"/>
<path d="M464.87 122.335L465.15 123.665L465.85 124.505L467.39 124.926L468.37 124.785L469.77 123.945L470.4 122.965L470.68 121.494L470.89 120.514L469.84 119.744L468.79 119.393L465.92 121.214L464.87 122.335Z" fill="#F9C3C9"/>
<path d="M455.56 133.188H456.4L457.52 132.138L457.94 130.948L458.01 129.617L457.66 128.707L456.96 127.867L456.19 127.306L455.91 127.516L454.65 132.698L455.56 133.188Z" fill="#F9C3C9"/>
<path d="M463.82 126.466H463.4L462.21 126.956L461.3 127.586L460.6 128.217L459.69 128.917L459.41 129.687L459.69 130.878L460.67 131.788L461.51 132.068H462.56L463.4 131.718L464.17 131.158L464.59 130.528L465.01 129.547L465.29 128.567L465.43 127.867L465.15 127.446L464.31 126.746L463.82 126.466Z" fill="#F9C3C9"/>
<path d="M461.37 121.354L460.18 120.794L459.62 120.654L458.64 121.004C458.64 121.004 458.15 122.194 458.01 122.265C457.94 122.335 457.66 123.175 457.66 123.175L457.87 124.365L458.43 125.136L459.34 125.486H460.39L461.3 125.066L461.93 124.225L462.56 123.245L462.77 122.405L462.14 121.844L461.37 121.354Z" fill="#F9C3C9"/>
<path d="M457.45 138.44L457.8 137.53L458.01 136.34L457.66 135.709L456.89 135.079L456.26 135.009L454.72 135.709L453.88 136.48L453.67 136.69L452.9 139.841L453.25 140.191L454.09 140.471H455.07L456.26 139.981L457.03 139.211L457.45 138.44Z" fill="#F9C3C9"/>
<path d="M519.54 178.775L521.15 179.125L522.13 178.985L523.46 178.215L524.09 177.164V177.024L523.25 173.873L522.48 173.663L519.61 175.414L518.63 176.604L518.84 177.935L519.54 178.775Z" fill="#F9C3C9"/>
<path d="M506.45 179.825L506.66 178.845L506.8 177.865L506.03 177.165L504.91 176.604L503.72 177.235L502.32 178.215L501.27 179.125L500.99 179.755L500.92 180.736L500.99 180.806H505.89L506.45 179.825Z" fill="#F9C3C9"/>
<path d="M517.51 180.736H517.09L516.88 180.806H517.72L517.51 180.736Z" fill="#F9C3C9"/>
<path d="M513.31 174.854L512.33 175.204C512.33 175.204 511.84 176.394 511.7 176.464C511.56 176.534 511.35 177.375 511.35 177.375L511.56 178.565L512.12 179.335L513.03 179.685H514.08L514.99 179.265L515.62 178.425L516.25 177.445L516.46 176.604L515.83 176.044L514.99 175.554L513.8 174.994L513.31 174.854Z" fill="#F9C3C9"/>
<path d="M468.51 173.663L465.64 175.484L464.59 176.674L464.73 177.305C467.6 177.305 469.56 177.375 469.56 177.375L469.98 174.363L469.63 174.083L468.51 173.663Z" fill="#F9C3C9"/>
<path d="M452.06 177.165L450.94 176.604L449.82 177.165C450.59 177.165 451.29 177.165 452.06 177.165Z" fill="#F9C3C9"/>
<path d="M461.09 175.554L459.9 174.994L459.34 174.854L458.36 175.204C458.36 175.204 457.87 176.394 457.73 176.464C457.66 176.534 457.52 176.884 457.45 177.164C459.13 177.164 460.74 177.164 462.28 177.164L462.42 176.534L461.79 175.974L461.09 175.554Z" fill="#F9C3C9"/>
<path d="M470.61 161.339L469.91 160.638L469.07 160.078L467.88 159.868L466.83 160.709L466.55 161.759L466.76 163.019L467.18 164.7L467.88 165.82L469 166.03L470.12 165.75L470.82 164.98L471.52 163.86V163.51V162.109L470.61 161.339Z" fill="#F9C3C9"/>
<path d="M469.91 106.299L469.07 105.668L467.88 105.458L466.83 106.299L466.55 107.349L466.76 108.61L467.18 110.29L467.88 111.411L469 111.691L470.12 111.411L470.82 110.64L471.52 109.45V107.699L470.61 106.999L469.91 106.299Z" fill="#F9C3C9"/>
<path d="M479.57 103.358L478.8 103.008L477.26 104.058V105.458L477.54 106.929L478.03 108.189L478.8 108.96L479.36 109.1L480.2 103.638L479.57 103.358Z" fill="#F9C3C9"/>
<path d="M476.14 37.5337C476.14 37.5337 473.2 41.8753 471.73 44.4662C472.57 44.5362 473.62 44.6063 473.62 44.6063C473.62 44.6063 472.29 48.9478 474.46 50.5584C476.63 52.099 482.09 50.0683 480.83 53.6396C480.83 53.6396 479.5 55.1801 476.35 56.2305C473.27 57.2109 461.02 58.6114 449.61 78.3586C449.19 79.0588 447.65 80.8795 450.45 83.2603C452.13 84.6609 454.51 85.3611 456.54 86.1314C458.92 86.9717 461.37 88.0221 463.75 88.7223C466.27 89.4226 468.86 90.613 471.59 89.9128C473.48 89.4226 474.81 86.4815 474.88 85.7813C475.09 83.4704 469.91 82.7001 468.44 82.7001C468.3 82.7001 468.02 80.4593 468.02 80.3193C467.95 80.1092 467.81 79.689 467.88 79.1989C467.67 79.1288 467.04 79.619 466.83 79.7591C466.48 80.0392 466.2 80.2492 465.85 80.4593C465.5 80.6694 465.22 80.5294 464.8 80.4593C464.1 80.2492 463.4 80.0392 462.7 79.8291C461.37 79.3389 458.64 78.0785 460.6 76.5379C463.68 74.087 471.17 67.7147 471.17 67.7147L492.31 66.2441L500.92 69.6754C500.92 69.6754 505.96 71.7762 510.16 77.0981C508.34 78.8487 500.57 82.42 500.57 82.42C500.57 82.42 499.24 81.4397 497.14 80.3193L497.77 82.4901L497.98 83.3304C495.67 83.4004 492.73 83.3304 491.26 85.3611C490.14 86.9717 490 89.7727 492.24 90.473C493.01 90.683 493.92 90.613 494.69 90.543C496.16 90.3329 497.7 90.0528 499.1 89.4926C499.87 89.2125 500.64 88.7223 501.41 88.4422C503.58 87.672 505.68 86.7616 507.78 85.8513C510.86 84.5208 514.01 83.0503 516.88 81.2296C517.79 80.6694 520.59 79.1989 519.68 77.4482C517.16 72.3364 502.53 60.7121 502.53 60.7121C502.53 60.7121 485.73 57.701 484.82 51.3287C483.91 44.9564 488.6 43.5559 488.6 43.5559C488.6 43.5559 486.57 37.0435 483.42 38.2339C480.27 39.4244 480.06 37.8838 480.06 37.8838H476.14V37.5337Z" fill="#F6B29D"/>
<path d="M462.49 60.9922L467.74 72.2664L471.94 69.1152L467.95 78.9188L496.16 76.1878L495.04 67.2245L500.5 69.8855L506.45 62.3227C506.45 62.3227 497.35 52.7292 487.97 53.5695C487.97 53.5695 485.45 60.362 477.75 55.2502C477.75 55.3202 469.77 56.3706 462.49 60.9922Z" fill="#4FAF98"/>
<path d="M476.7 43.5559C477.048 43.5559 477.33 43.2737 477.33 42.9256C477.33 42.5776 477.048 42.2954 476.7 42.2954C476.352 42.2954 476.07 42.5776 476.07 42.9256C476.07 43.2737 476.352 43.5559 476.7 43.5559Z" fill="black"/>
<path d="M476.14 37.5337C476.14 37.5337 473.2 41.8753 471.73 44.4662C472.57 44.5362 473.62 44.6063 473.62 44.6063C473.62 44.6063 472.29 48.9478 474.46 50.5584C476.63 52.099 482.09 50.0683 480.83 53.6396C480.83 53.6396 479.5 55.1801 476.35 56.2305C473.27 57.2109 461.02 58.6114 449.61 78.3586C449.19 79.0588 447.65 80.8795 450.45 83.2603C452.13 84.6609 454.51 85.3611 456.54 86.1314C458.92 86.9717 461.37 88.0221 463.75 88.7223C466.27 89.4226 468.86 90.613 471.59 89.9128C473.48 89.4226 474.81 86.4815 474.88 85.7813C475.09 83.4704 469.91 82.7001 468.44 82.7001C468.3 82.7001 468.02 80.4593 468.02 80.3193C467.95 80.1092 467.81 79.689 467.88 79.1989C467.67 79.1288 467.04 79.619 466.83 79.7591C466.48 80.0392 466.2 80.2492 465.85 80.4593C465.5 80.6694 465.22 80.5294 464.8 80.4593C464.1 80.2492 463.4 80.0392 462.7 79.8291C461.37 79.3389 458.64 78.0785 460.6 76.5379C463.68 74.087 471.17 67.7147 471.17 67.7147L492.31 66.2441L500.92 69.6754C500.92 69.6754 505.96 71.7762 510.16 77.0981C508.34 78.8487 500.57 82.42 500.57 82.42C500.57 82.42 499.24 81.4397 497.14 80.3193L497.77 82.4901L497.98 83.3304C495.67 83.4004 492.73 83.3304 491.26 85.3611C490.14 86.9717 490 89.7727 492.24 90.473C493.01 90.683 493.92 90.613 494.69 90.543C496.16 90.3329 497.7 90.0528 499.1 89.4926C499.87 89.2125 500.64 88.7223 501.41 88.4422C503.58 87.672 505.68 86.7616 507.78 85.8513C510.86 84.5208 514.01 83.0503 516.88 81.2296C517.79 80.6694 520.59 79.1989 519.68 77.4482C517.16 72.3364 502.53 60.7121 502.53 60.7121C502.53 60.7121 492.66 58.9615 487.62 55.2501C487.06 54.2698 486.78 52.9393 486.57 51.3987C486.15 48.5977 487.62 47.9675 488.11 46.707C488.74 45.1665 488.6 43.4859 488.6 43.4859C488.6 43.4859 486.57 36.9735 483.42 38.1639C480.27 39.3544 480.06 37.8138 480.06 37.8138H476.14V37.5337Z" fill="#846057"/>
<path d="M462.49 60.9922L467.74 72.2664L471.94 69.1152L467.95 78.9188L496.16 76.1878L495.04 67.2245L500.5 69.8855L506.45 62.3227C506.45 62.3227 497.35 52.7292 487.97 53.5695C487.97 53.5695 485.45 60.362 477.75 55.2502C477.75 55.3202 469.77 56.3706 462.49 60.9922Z" fill="#4FAF98"/>
<path d="M476.7 43.5559C477.048 43.5559 477.33 43.2737 477.33 42.9256C477.33 42.5776 477.048 42.2954 476.7 42.2954C476.352 42.2954 476.07 42.5776 476.07 42.9256C476.07 43.2737 476.352 43.5559 476.7 43.5559Z" fill="black"/>
<path d="M682.29 133.189H890.96C890.96 133.189 883.47 108.399 860.09 105.388C836.08 102.307 825.79 116.172 825.79 116.172C825.79 116.172 821.52 82.9802 806.89 82.9802C792.26 82.9802 782.88 108.049 782.88 108.049C782.88 108.049 783.37 85.6412 771.05 85.6412C753.27 85.6412 744.24 108.049 744.24 108.049C744.24 108.049 734.51 93.7641 717.01 93.7641C690.76 93.8342 682.29 133.189 682.29 133.189Z" fill="#C5DBF1"/>
<path d="M309.19 157.487H128.17C128.17 157.487 132.09 131.158 147.56 127.937C162.61 124.785 169.89 142.712 169.89 142.712C169.89 142.712 179.76 110.85 201.74 110.85C216.37 110.85 226.03 130.247 226.03 130.247C226.03 130.247 233.59 103.778 252.49 103.778C271.39 103.778 274.33 140.401 274.33 140.401C274.33 140.401 283.71 128.847 293.72 130.598C305.27 132.698 309.19 157.487 309.19 157.487Z" fill="#C5DBF1"/>
<path d="M493.64 29.4107C493.08 29.0606 492.38 29.1306 491.89 29.4807C491.61 28.2903 490.14 27.7301 489.23 28.5004C489.37 27.8702 489.02 27.1699 488.53 26.8898C488.04 26.6097 487.34 26.8198 486.99 27.38C486.71 26.7498 486.08 26.3996 485.52 26.4697C484.96 26.5397 484.4 27.0299 484.19 27.7301C483.91 26.9598 483.14 26.5397 482.51 26.6797C481.81 26.8898 481.32 27.6601 481.39 28.4304C480.69 28.1503 479.99 27.8702 479.22 28.0102C478.52 28.1503 477.89 28.9906 478.1 29.8309C477.47 29.5508 476.7 29.7609 476.35 30.3211C475.93 30.8813 475.93 31.7916 476.35 32.4218C475.58 32.2117 474.67 32.7719 474.39 33.6123C474.11 34.4526 474.39 35.5029 475.02 36.0631C474.67 35.713 474.11 36.2032 474.18 36.7634C474.25 37.2536 474.67 37.6037 475.09 37.7438C474.81 37.9538 474.74 38.514 475.02 38.7241C475.3 38.9342 477.61 39.0742 478.8 39.0742C479.99 39.0742 481.25 38.8642 482.37 39.4944C483.14 39.9146 483.7 40.7549 484.12 41.6652C484.47 42.5755 484.68 43.5559 484.89 44.5362C485.03 43.906 485.94 43.1357 486.43 43.4859C487.9 44.6763 486.36 47.1972 485.31 48.7378C485.24 49.368 485.45 50.0683 485.94 50.3484C486.43 50.6285 487.2 50.1383 487.06 49.5781C487.55 49.8582 488.11 50.1383 488.67 50.0683C489.23 49.9982 489.72 49.368 489.51 48.7378C489.72 49.1579 490.21 49.7882 490.91 49.5781C491.54 49.438 491.82 48.9478 491.89 48.2476C492.45 48.5977 493.15 48.4577 493.57 47.8975C493.99 47.3373 493.99 46.497 493.64 45.9367C494.13 46.2168 494.76 46.1468 495.18 45.6566C495.53 45.1665 495.6 44.4662 495.32 43.906C495.81 44.2561 496.58 44.1161 496.93 43.5559C497.28 42.9957 497.21 42.1554 496.72 41.7352C497.28 41.7352 497.77 41.245 497.91 40.6148C498.05 39.9846 497.77 39.2843 497.28 39.0042C497.84 38.8642 498.26 38.1639 498.19 37.4637C498.12 36.7634 497.56 36.2732 496.93 36.2732C497.07 35.8531 497.28 35.4329 497.21 34.9427C497.14 34.5226 496.72 34.1024 496.37 34.3125C496.72 34.1024 496.86 33.6123 496.72 33.1921C496.58 32.7719 496.09 32.6319 495.74 32.7719C495.88 32.5619 496.09 32.3518 496.09 32.0717C496.16 31.7916 496.09 31.5815 496.02 31.3014C495.88 30.9513 495.53 30.8112 495.18 30.8112C494.83 30.8112 494.55 30.8813 494.2 30.9513C494.06 30.9513 494.2 29.7609 493.64 29.4107Z" fill="black"/>
</svg>
